<svg width="82" height="61" viewBox="0 0 82 61" fill="none" xmlns="http://www.w3.org/2000/svg">
<path d="M80.4502 8.58691L58.9062 59.4141L58.3799 60.6572L57.3438 59.79C54.946 57.7837 53.0461 56.1736 50.5771 53.1035C48.215 50.1662 45.3412 45.9019 40.96 38.668C36.579 45.9014 33.7068 50.1663 31.3447 53.1035C28.8757 56.1736 26.9759 57.7837 24.5781 59.79L23.542 60.6572L23.0156 59.4141L1.47168 8.58691L0 5.11426L2.99902 7.40137L40.9609 36.3486L78.9229 7.40137L81.9219 5.11426L80.4502 8.58691ZM16.4961 0C23.1389 18.5536 34.7339 27.9326 41.3662 32.2559L75.9297 6.23633L76.8311 7.21094L41.1426 34.5469V34.5459L5.38086 7.21094L6.28223 6.23633L23.2197 18.9863C20.6888 16.4636 18.1495 13.7436 15.752 10.9023C14.9576 9.96111 14.1795 9.00617 13.4219 8.04102C12.3023 6.61456 11.2275 5.16596 10.2178 3.70215L11.3691 2.79004L12.166 3.92285C15.428 8.47919 19.2855 12.8769 23.1719 16.8311C23.4881 17.1528 23.8038 17.4724 24.1201 17.7881C20.7844 13.1568 17.6298 7.48401 15.1523 0.564453L16.4961 0Z" fill="white"/>
</svg>
